<svg width="2528" height="280" viewBox="0 0 2528 280" fill="none" xmlns="http://www.w3.org/2000/svg">
<path d="M511.888 216.021C501.377 194.558 496 169.245 496 140.41C496 82.7384 514.576 38.2563 558.084 16.3838C579.838 5.48859 608.517 0 643.796 0C715.169 0 756.232 23.0193 776.846 65.1258C786.949 86.5886 792 111.492 792 140.41C792 198.163 771.468 242.153 729.183 263.616C707.836 274.511 679.564 280 643.878 280C572.913 280 532.99 259.356 512.051 216.021H511.888ZM722.094 189.561C727.146 175.553 729.834 159.169 729.834 140.41C729.834 102.563 720.546 74.5465 696.511 60.0468C684.453 52.6741 666.609 49.1515 643.796 49.1515C597.681 49.1515 574.379 62.832 565.091 90.8484C560.04 104.857 557.758 121.24 557.758 140.41C557.758 177.847 568.269 208.648 591.897 221.1C603.548 227.326 620.983 230.439 643.878 230.439C689.993 230.439 711.339 217.987 722.257 189.479L722.094 189.561Z" fill="white"/>
<path d="M1026.45 272V87.1918L881.793 272H816V8H877.879V193.216L1022.21 8H1088V272H1026.54H1026.45Z" fill="white"/>
<path d="M1233.08 272V57.342H1120V8H1408V57.342H1294.92V272H1233H1233.08Z" fill="white"/>
<path d="M1621.66 272L1592.61 211.811H1439.06L1410.34 272H1344L1468.51 8H1562.74L1688 272H1621.66ZM1462.57 162.877H1569.02L1518.35 57.6682H1512.82L1462.57 162.877Z" fill="white"/>
<path d="M2204.26 272V87.1918L2063.86 272H2000V8H2060.06V193.216L2200.14 8H2264V272H2204.35H2204.26Z" fill="white"/>
<path d="M2296 271.918V8H2528V55.7776H2355.98V114.807H2520.64V160.954H2355.98V224.222H2528V272H2296V271.918Z" fill="white"/>
<path d="M407.577 8L266.336 193.134V8H205.746H201.831L60.5902 193.134V8H0V272H64.4229L205.746 87.6812V272H206.153H266.336H270.169L411.899 87.1918V272H472V8H407.577Z" fill="white"/>
<path d="M1853.2 122.704V169.169H1902.3C1901.74 175.795 1899.97 185.202 1894.44 194.773C1876.52 226.258 1835.63 229.358 1825.77 230.105L1825.68 230.112C1811.73 231.175 1793.44 230.93 1774.5 220.786C1751.24 208.352 1740.89 177.594 1740.89 140.21C1740.89 121.15 1743.22 104.79 1748.11 90.7195C1757.25 62.661 1780.2 49.0818 1825.6 49.0818C1848.15 49.0818 1865.72 52.5993 1877.51 59.9616C1890.83 68.0601 1899.57 80.4941 1904.62 96.5275H1966.96C1964.47 85.3205 1961.02 74.7679 1956.53 65.0333C1936.31 22.9866 1895.8 0 1825.52 0C1790.79 0 1762.55 5.4808 1741.13 16.3606C1698.37 38.202 1680 82.5392 1680 140.21C1680 169.005 1685.37 194.364 1695.64 215.714C1701.58 228.067 1708.96 238.619 1718.27 247.372C1755.49 282.466 1805.95 280.584 1825.52 279.603C1845.18 278.621 1871.33 276.903 1894.28 257.761C1903.34 250.153 1909.36 242.055 1913.05 236.083V272H1967.78L1968.11 122.704H1853.2Z" fill="white"/>
</svg>
